# xmcd
#
# Track frame offsets:
#	150
#	21112
#	35802
#	58339
#	72422
#	89775
#	111477
#	132622
#	151455
#	165792
#	183495
#	199025
#	212390
#	240190
#
# Disc length: 3385 seconds
#
# Revision: 0
# Processed by: cddbd v1.5.1PL2 Copyright (c) Steve Scherf et al.
# Submitted via: dBpowerAMP V4.0
#
DISCID=c90d370e
DTITLE=Mudcat Blues Band - Live at Mom's
DYEAR=1998
DGENRE=Blues
TTITLE0=Things We Don't Talk About
TTITLE1=Way Down South
TTITLE2=King Cootie Waltz
TTITLE3=Mail Box Blues
TTITLE4=They Call Me The Rocker
TTITLE5=Strut
TTITLE6=Blues Cadillac
TTITLE7=Cherry Street (Dreamy Eyed Girl)
TTITLE8=Blue Shadows
TTITLE9=Ugh!
TTITLE10=(Me and My) Crazy Self
TTITLE11=Too Much of Something
TTITLE12=Big Back Yard
TTITLE13=Nobody's Fault But Mine
EXTD=Live album of the Mudcats Blues Band
EXTT0=
EXTT1=
EXTT2=
EXTT3=
EXTT4=
EXTT5=
EXTT6=
EXTT7=
EXTT8=
EXTT9=
EXTT10=
EXTT11=
EXTT12=
EXTT13=
PLAYORDER=
